<svg height="512pt" viewBox="0 0 512 512" width="512pt" xmlns="http://www.w3.org/2000/svg"><path d="M179.2 315.734a8.486 8.486 0 0 1-6.427-2.918c-3.105-3.543-2.746-8.937.805-12.043l48.758-42.664a8.544 8.544 0 0 1 11.484.22l45.11 42.667c3.422 3.242 3.574 8.645.332 12.066a8.535 8.535 0 0 1-12.067.333l-39.465-37.333-42.925 37.555a8.398 8.398 0 0 1-5.606 2.117zm34.132-76.8c-18.824 0-34.133-15.309-34.133-34.133s15.309-34.133 34.133-34.133 34.133 15.309 34.133 34.133-15.309 34.133-34.133 34.133zm0-51.2c-9.41 0-17.066 7.653-17.066 17.067 0 9.41 7.656 17.066 17.066 17.066 9.414 0 17.066-7.656 17.066-17.066 0-9.414-7.652-17.067-17.066-17.067zm0 0"/><path d="M273.066 315.734a8.485 8.485 0 0 1-5.894-2.363l-23.598-22.59c-3.394-3.258-3.523-8.644-.273-12.047l51.637-54.214c3.218-3.38 9.14-3.38 12.355 0l48.762 51.199c3.25 3.406 3.113 8.808-.293 12.066-3.41 3.246-8.813 3.125-12.067-.297l-42.578-44.707-39.586 41.559 17.45 16.7c3.406 3.269 3.523 8.667.265 12.065a8.597 8.597 0 0 1-6.18 2.63zM59.734 68.266H8.535A8.53 8.53 0 0 1 0 59.734V8.535A8.531 8.531 0 0 1 8.535 0h51.2a8.528 8.528 0 0 1 8.53 8.535v51.2a8.527 8.527 0 0 1-8.53 8.53zM17.066 51.199H51.2V17.066H17.066zm486.399 17.067h-51.2a8.527 8.527 0 0 1-8.53-8.532V8.535A8.528 8.528 0 0 1 452.264 0h51.2A8.531 8.531 0 0 1 512 8.535v51.2a8.53 8.53 0 0 1-8.535 8.53zM460.8 51.199h34.133V17.066H460.8zM59.734 512H8.535A8.531 8.531 0 0 1 0 503.465v-51.2a8.53 8.53 0 0 1 8.535-8.53h51.2a8.527 8.527 0 0 1 8.53 8.53v51.2a8.528 8.528 0 0 1-8.53 8.535zm-42.668-17.066H51.2V460.8H17.066zM503.465 512h-51.2a8.528 8.528 0 0 1-8.53-8.535v-51.2a8.527 8.527 0 0 1 8.53-8.53h51.2a8.53 8.53 0 0 1 8.535 8.53v51.2a8.531 8.531 0 0 1-8.535 8.535zM460.8 494.934h34.133V460.8H460.8zm0 0"/><path d="M452.266 486.398H59.734a8.53 8.53 0 0 1-8.535-8.53V460.8H34.133a8.53 8.53 0 0 1-8.531-8.535V59.734a8.53 8.53 0 0 1 8.53-8.535H51.2V34.133a8.53 8.53 0 0 1 8.535-8.531h392.532a8.53 8.53 0 0 1 8.535 8.53V51.2h17.066a8.53 8.53 0 0 1 8.531 8.535v392.532a8.53 8.53 0 0 1-8.53 8.535H460.8v17.066a8.53 8.53 0 0 1-8.535 8.531zm-384-17.066h375.468v-17.066a8.527 8.527 0 0 1 8.532-8.532h17.066V68.266h-17.066a8.527 8.527 0 0 1-8.532-8.532V42.668H68.266v17.066a8.527 8.527 0 0 1-8.532 8.532H42.668v375.468h17.066a8.527 8.527 0 0 1 8.532 8.532zm0 0"/></svg>