<svg xmlns="http://www.w3.org/2000/svg" viewBox="0 0 33 33" width="512" height="512"><g fill="#FFF"><path d="M16.5 33a.5.5 0 0 1-.5-.5C16 21.454 4.679 10.733 4.564 10.627a.498.498 0 0 1 .138-.821c7.357-3.298 5.446-8.9 5.361-9.137a.501.501 0 0 1 .942-.338c.023.065 2.173 6.35-5.234 10.074C8.075 12.708 17 22.289 17 32.5a.5.5 0 0 1-.5.5z"/><path d="M16.5 33a.5.5 0 0 1-.5-.5c0-10.211 8.925-19.792 11.23-22.095C19.823 6.68 21.973.396 21.996.331a.5.5 0 0 1 .942.337c-.084.237-1.966 5.854 5.36 9.138a.5.5 0 0 1 .138.821C28.321 10.733 17 21.462 17 32.5a.5.5 0 0 1-.5.5z"/><path d="M16.5 33a.5.5 0 0 1-.5-.5V14.059a.5.5 0 0 1 1 0V32.5a.5.5 0 0 1-.5.5z"/><path d="M16.5 14.559a2.265 2.265 0 0 1-2.263-2.262c0-1.248 1.015-2.264 2.263-2.264s2.263 1.016 2.263 2.264a2.265 2.265 0 0 1-2.263 2.262zm0-3.526a1.264 1.264 0 1 0 1.263 1.264c0-.697-.567-1.264-1.263-1.264zM26.975 1H6.025a.5.5 0 0 1 0-1h20.949a.5.5 0 0 1 .001 1z"/></g></svg>