<svg xmlns="http://www.w3.org/2000/svg" width="123.394" height="123.395"><circle cx="61.703" cy="12.768" r="12.768"/><path d="M70.198 28.645c-.214-.131-.44-.226-.665-.321a14.8 14.8 0 0 0-4.647-2.046l-3.181 3.202-3.084-3.237c-.01.002-.021.003-.031.006a14.683 14.683 0 0 0-4.737 2.08c-.222.095-.444.187-.655.316-6.269 3.845-25.345 15.545-11.359 41.252a4.955 4.955 0 0 0 6.723 1.985c.264-.144.502-.314.729-.496l.004 46.151a5.858 5.858 0 0 0 11.716 0L61.008 76.8c.233.01.464.028.697.028.046 0 .091-.005.138-.006l-.002 40.714a5.857 5.857 0 1 0 11.715 0l.002-46.678c.362.396.777.752 1.274 1.023a4.955 4.955 0 0 0 6.722-1.985c13.988-25.707-5.088-37.407-11.356-41.251zM48.635 61.152c-2.708-6.65-2.173-11.5 0-15.273v15.273zm13.099-6.402h-.06l-3.079-4.214 3.079-20.583h.06l3.08 20.583-3.08 4.214zm13.04 6.367V45.903c2.156 3.764 2.686 8.596 0 15.214z"/></svg>