<svg xmlns="http://www.w3.org/2000/svg" viewBox="0 0 349.158 349.158" width="512" height="512"><g fill="#FFF"><path d="M341.658 6.227H83.455a7.499 7.499 0 0 0-7.5 7.5V162.83H7.5a7.499 7.499 0 0 0-7.5 7.5v127.123c0 25.076 20.4 45.479 45.477 45.479H303.68c25.076 0 45.479-20.402 45.479-45.479V13.727a7.5 7.5 0 0 0-7.501-7.5zM15 297.453V177.83h60.955v119.623c0 16.805-13.672 30.479-30.479 30.479-16.804 0-30.476-13.674-30.476-30.479zm319.158 0c0 16.805-13.672 30.479-30.479 30.479H79.203c7.299-8.07 11.752-18.766 11.752-30.479V21.227h243.203v276.226z"/><path d="M202.023 92.855h96.127c4.143 0 7.5-3.357 7.5-7.5s-3.357-7.5-7.5-7.5h-96.127a7.499 7.499 0 0 0-7.5 7.5 7.5 7.5 0 0 0 7.5 7.5zm0 82.393h96.127c4.143 0 7.5-3.357 7.5-7.5s-3.357-7.5-7.5-7.5h-96.127a7.499 7.499 0 0 0-7.5 7.5 7.5 7.5 0 0 0 7.5 7.5zm0 82.395h96.127c4.143 0 7.5-3.357 7.5-7.5s-3.357-7.5-7.5-7.5h-96.127a7.5 7.5 0 0 0 0 15zm-69.209-156.348a7.506 7.506 0 0 0 5.453 2.35h.063a7.502 7.502 0 0 0 5.477-2.443l41.197-45.121a7.501 7.501 0 0 0-11.078-10.114l-35.752 39.156-11.129-11.785a7.5 7.5 0 1 0-10.907 10.299l16.676 17.658zm41.112 30.646l-35.752 39.154-11.131-11.783a7.497 7.497 0 0 0-10.602-.303 7.5 7.5 0 0 0-.303 10.602l16.676 17.656a7.506 7.506 0 0 0 5.453 2.35h.063a7.502 7.502 0 0 0 5.477-2.443l41.197-45.119a7.5 7.5 0 1 0-11.078-10.114zm0 85.973l-35.752 39.154-11.131-11.783a7.496 7.496 0 0 0-10.602-.303 7.5 7.5 0 0 0-.303 10.602l16.676 17.656a7.506 7.506 0 0 0 5.453 2.35h.063a7.502 7.502 0 0 0 5.477-2.443l41.197-45.119a7.5 7.5 0 0 0-11.078-10.114z"/></g></svg>