<svg height="512pt" viewBox="0 0 512 512" width="512pt" xmlns="http://www.w3.org/2000/svg"><path d="m179.199219 315.734375c-2.378907 0-4.734375-.980469-6.425781-2.917969-3.105469-3.542968-2.746094-8.9375.804687-12.042968l48.757813-42.664063c3.3125-2.894531 8.285156-2.800781 11.484374.21875l45.109376 42.667969c3.421874 3.242187 3.574218 8.644531.332031 12.066406-3.242188 3.421875-8.636719 3.574219-12.066407.332031l-39.464843-37.332031-42.925781 37.554688c-1.601563 1.425781-3.609376 2.117187-5.605469 2.117187zm0 0"/><path d="m213.332031 238.933594c-18.824219 0-34.132812-15.308594-34.132812-34.132813s15.308593-34.132812 34.132812-34.132812 34.132813 15.308593 34.132813 34.132812-15.308594 34.132813-34.132813 34.132813zm0-51.199219c-9.410156 0-17.066406 7.652344-17.066406 17.066406 0 9.410157 7.65625 17.066407 17.066406 17.066407 9.414063 0 17.066407-7.65625 17.066407-17.066407 0-9.414062-7.652344-17.066406-17.066407-17.066406zm0 0"/><path d="m273.066406 315.734375c-2.125 0-4.25-.785156-5.894531-2.363281l-23.597656-22.589844c-3.394531-3.257812-3.523438-8.644531-.273438-12.046875l51.636719-54.214844c3.21875-3.378906 9.140625-3.378906 12.355469 0l48.761719 51.199219c3.25 3.40625 3.113281 8.808594-.292969 12.066406-3.410157 3.246094-8.8125 3.125-12.066407-.296875l-42.578124-44.707031-39.585938 41.558594 17.449219 16.699218c3.40625 3.269532 3.523437 8.667969.265625 12.066407-1.691406 1.742187-3.933594 2.628906-6.179688 2.628906zm0 0"/><path d="m59.734375 68.265625h-51.199219c-4.710937 0-8.535156-3.8125-8.535156-8.53125v-51.199219c0-4.722656 3.824219-8.535156 8.535156-8.535156h51.199219c4.710937 0 8.53125 3.8125 8.53125 8.535156v51.199219c0 4.71875-3.820313 8.53125-8.53125 8.53125zm-42.667969-17.066406h34.132813v-34.132813h-34.132813zm0 0"/><path d="m503.464844 68.265625h-51.199219c-4.710937 0-8.53125-3.8125-8.53125-8.53125v-51.199219c0-4.722656 3.820313-8.535156 8.53125-8.535156h51.199219c4.710937 0 8.535156 3.8125 8.535156 8.535156v51.199219c0 4.71875-3.824219 8.53125-8.535156 8.53125zm-42.664063-17.066406h34.132813v-34.132813h-34.132813zm0 0"/><path d="m59.734375 512h-51.199219c-4.710937 0-8.535156-3.8125-8.535156-8.535156v-51.199219c0-4.71875 3.824219-8.53125 8.535156-8.53125h51.199219c4.710937 0 8.53125 3.8125 8.53125 8.53125v51.199219c0 4.722656-3.820313 8.535156-8.53125 8.535156zm-42.667969-17.066406h34.132813v-34.132813h-34.132813zm0 0"/><path d="m503.464844 512h-51.199219c-4.710937 0-8.53125-3.8125-8.53125-8.535156v-51.199219c0-4.71875 3.820313-8.53125 8.53125-8.53125h51.199219c4.710937 0 8.535156 3.8125 8.535156 8.53125v51.199219c0 4.722656-3.824219 8.535156-8.535156 8.535156zm-42.664063-17.066406h34.132813v-34.132813h-34.132813zm0 0"/><path d="m452.265625 486.398438h-392.53125c-4.710937 0-8.535156-3.8125-8.535156-8.53125v-17.066407h-17.066407c-4.710937 0-8.53125-3.816406-8.53125-8.535156v-392.53125c0-4.71875 3.820313-8.535156 8.53125-8.535156h17.066407v-17.066407c0-4.71875 3.824219-8.53125 8.535156-8.53125h392.53125c4.710937 0 8.535156 3.8125 8.535156 8.53125v17.066407h17.066407c4.710937 0 8.53125 3.816406 8.53125 8.535156v392.53125c0 4.71875-3.820313 8.535156-8.53125 8.535156h-17.066407v17.066407c0 4.71875-3.824219 8.53125-8.535156 8.53125zm-384-17.066407h375.46875v-17.066406c0-4.71875 3.820313-8.53125 8.53125-8.53125h17.066406v-375.46875h-17.066406c-4.710937 0-8.53125-3.8125-8.53125-8.53125v-17.066406h-375.46875v17.066406c0 4.71875-3.820313 8.53125-8.53125 8.53125h-17.066406v375.46875h17.066406c4.710937 0 8.53125 3.8125 8.53125 8.53125zm0 0"/></svg>